HIERARCHY
ROOT Hips
{
  OFFSET 74.0196 97.4445 -31.1285
  CHANNELS 6 Xposition Yposition Zposition Zrotation Xrotation Yrotation
  JOINT RightUpLeg
  {
    OFFSET -8.9458 -8.66707 0.101652
    CHANNELS 3 Zrotation Xrotation Yrotation
    JOINT RightLeg
    {
      OFFSET -2.94875e-013 -44.4227 1.3727
      CHANNELS 3 Zrotation Xrotation Yrotation
      JOINT RightFoot
      {
        OFFSET 0.253549 -42.0924 -1.46059
        CHANNELS 3 Zrotation Xrotation Yrotation
        JOINT RightToes
        {
          OFFSET 0.04 -4.41509 8.4991
          CHANNELS 3 Zrotation Xrotation Yrotation
          End Site
          {
            OFFSET -0.08 -0.137448 9.77979
          }
        }
      }
    }
  }
  JOINT Spine
  {
    OFFSET -5.68434e-014 11.8905 -6.39488e-014
    CHANNELS 3 Zrotation Xrotation Yrotation
    JOINT Spine1
    {
      OFFSET 5.68434e-014 25.6574 0.127663
      CHANNELS 3 Zrotation Xrotation Yrotation
      JOINT HEad
      {
        OFFSET 4.26326e-014 8.73416 0.011341
        CHANNELS 3 Zrotation Xrotation Yrotation
        End Site
        {
          OFFSET -0.29 12.7742 2.51395
        }
      }
      JOINT LeftShoulder1
      {
        OFFSET 8.99 -0.362252 -0.22
        CHANNELS 3 Zrotation Xrotation Yrotation
        JOINT LeftArm
        {
          OFFSET 10.2827 -0.00338 0.322123
          CHANNELS 3 Zrotation Xrotation Yrotation
          JOINT LeftForeArm
          {
            OFFSET 32.7669 0.099144 -1.42434
            CHANNELS 3 Zrotation Xrotation Yrotation
            JOINT LeftHand
            {
              OFFSET 27.5643 0.085362 1.02216
              CHANNELS 3 Zrotation Xrotation Yrotation
              End Site
              {
                OFFSET 16.7443 -0.6 1.50291
              }
            }
          }
        }
      }
      JOINT RightShoulder
      {
        OFFSET -8.99 -0.362252 -0.22
        CHANNELS 3 Zrotation Xrotation Yrotation
        JOINT RightArm
        {
          OFFSET -10.2827 -0.00338 0.322123
          CHANNELS 3 Zrotation Xrotation Yrotation
          JOINT RightForeArm
          {
            OFFSET -32.8971 0.099144 -1.42434
            CHANNELS 3 Zrotation Xrotation Yrotation
            JOINT RightHand
            {
              OFFSET -27.4921 0.085362 1.02216
              CHANNELS 3 Zrotation Xrotation Yrotation
              End Site
              {
                OFFSET -16.6312 -0.6 1.50291
              }
            }
          }
        }
      }
    }
  }
  JOINT LeftUpLeg
  {
    OFFSET 8.9458 -8.66707 0.101652
    CHANNELS 3 Zrotation Xrotation Yrotation
    JOINT LeftLeg
    {
      OFFSET 7.10543e-014 -44.4227 1.3727
      CHANNELS 3 Zrotation Xrotation Yrotation
      JOINT LeftFoot
      {
        OFFSET -0.253549 -42.0924 -1.46059
        CHANNELS 3 Zrotation Xrotation Yrotation
        JOINT LeftToes
        {
          OFFSET -0.04 -4.41509 8.4991
          CHANNELS 3 Zrotation Xrotation Yrotation
          End Site
          {
            OFFSET 0.08 -0.047448 9.77979
          }
        }
      }
    }
  }
}
MOTION
Frames:	7
Frame Time:	0.0166667
52.0388 85.4409 -185.398 -9.80108 3.23916 -98.5723 -13.6538 -2.0314 1.94171 11.3242 67.2513 -1.90461 17.5696 0.926831 -1.44207 -16.6684 -27.6293 -1.84184 1.16575 7.74665 4.22312 2.8739 15.4701 8.92429 -6.16064 0.639402 26.3296 -5.03302e-021 -3.88251e-019 1.21329e-020 -43.2868 -45.9136 3.27726 -9.7692 39.2834 -99.0133 16.8737 4.83761 -30.5217 14.309 3.14158 15.7391 64.8853 -9.60474 38.887 -20.6381 24.9187 144.46 -5.61085 12.1001 -53.6155 25.5012 -26.8798 10.8359 -14.1153 35.6766 19.1927 -9.21924 3.51925 0.86304 -1.84129 2.40859 2.46087 
53.4291 85.2408 -185.253 -10.0157 2.81003 -99.7051 -13.8188 -0.351591 1.93651 12.8732 65.0751 -5.57456 15.5916 0.553861 -1.24257 -19.1014 -30.1851 -4.99462 1.483 7.68024 4.71034 3.25634 15.4096 9.92725 -6.63415 1.36832 24.927 -5.03302e-021 -3.88251e-019 1.21329e-020 -41.6747 -45.5808 9.61717 -10.2063 38.7315 -101.486 16.5621 4.81797 -31.3013 14.4277 3.02929 14.9889 65.2287 -8.7511 37.7813 -21.1044 22.9274 145.071 -4.31614 11.5556 -54.6334 25.125 -26.5904 10.8535 -13.9854 34.4577 19.7128 -9.19184 3.6642 0.871043 -3.1791 4.05085 3.63944 
55.0718 85.1955 -185.27 -10.0131 2.407 -100.373 -13.6656 1.06851 1.64745 14.4126 62.2436 -10.3589 12.3766 -0.394602 -0.912674 -23.3444 -34.0893 -9.85168 1.81033 7.63434 5.16081 3.68969 15.3797 10.876 -7.14128 1.89263 23.4834 -5.03302e-021 -3.88251e-019 1.21329e-020 -40.3809 -45.0622 14.9461 -12.3512 38.564 -101.987 15.1353 5.01387 -33.2277 14.5185 2.92916 14.3391 65.5896 -8.3358 36.8879 -21.3601 21.6916 145.514 -3.46782 11.1821 -55.2427 24.4825 -26.4724 10.7188 -13.0432 32.5551 19.0418 -9.62012 3.72542 0.918294 -5.23366 6.43141 5.52394 
56.9561 85.2804 -185.438 -9.77207 2.01141 -100.559 -13.2268 2.14689 1.09829 15.8378 58.9941 -15.6822 8.39162 -2.27951 -0.532244 -27.9809 -37.4035 -15.319 2.09967 7.60305 5.56438 4.14899 15.3525 11.7287 -7.67188 2.24333 22.0419 -5.03302e-021 -3.88251e-019 1.21329e-020 -39.5244 -44.3697 19.0761 -15.4895 38.5682 -101.183 12.9728 5.45734 -35.7191 14.5821 2.84273 13.7941 65.9206 -8.39612 36.2092 -21.4129 21.2253 145.841 -3.07097 11.003 -55.5052 23.5499 -26.5321 10.4311 -11.2641 29.9793 17.0053 -10.6666 3.83682 1.03247 -7.8052 9.16298 8.05072 
59.0446 85.4501 -185.731 -9.30426 1.61743 -100.276 -12.569 2.8143 0.336526 17.0587 55.6178 -20.8435 4.30849 -5.09321 -0.251948 -30.6954 -38.7818 -18.9849 2.33986 7.575 5.90198 4.60673 15.301 12.4278 -8.20463 2.43757 20.6644 -5.03302e-021 -3.88251e-019 1.21329e-020 -39.0839 -43.5989 21.9724 -18.8658 38.5074 -99.8224 10.538 6.10674 -38.2022 14.6169 2.7732 13.3706 66.1893 -8.87143 35.763 -21.3118 21.3989 146.091 -3.04993 10.9933 -55.5131 22.3228 -26.7059 10.0033 -8.73018 26.7297 13.5205 -12.4157 4.19569 1.24582 -10.5348 11.7465 10.9922 
61.2734 85.654 -186.111 -8.65806 1.2391 -99.575 -11.787 3.03074 -0.572311 18.0324 52.4053 -25.2669 0.675516 -8.29986 -0.172184 -30.7817 -38.5364 -19.7441 2.56643 7.53173 6.15417 5.03542 15.2063 12.9197 -8.70773 2.47427 19.4126 -5.03302e-021 -3.88251e-019 1.21329e-020 -38.912 -42.9003 23.7357 -21.8078 38.2752 -98.5835 8.29623 6.81779 -40.3167 14.6204 2.72418 13.0888 66.3774 -9.62892 35.571 -21.1345 21.9884 146.281 -3.28213 11.0985 -55.3621 20.8521 -26.8496 9.42661 -5.69992 22.808 8.69492 -14.8368 4.94337 1.59107 -12.9748 13.7575 13.9302 
63.5663 85.861 -186.538 -7.91249 0.898048 -98.5449 -10.9939 2.80134 -1.55057 18.768 49.5879 -28.693 -2.28473 -11.1074 -0.264343 -29.5526 -37.6933 -18.6781 2.829 7.45624 6.31085 5.40645 15.0665 13.1754 -9.14667 2.3388 18.3273 -5.03302e-021 -3.88251e-019 1.21329e-020 -38.8108 -42.4408 24.5327 -23.8669 37.9048 -97.9172 6.60945 7.41 -41.9435 14.5927 2.69801 12.9608 66.4792 -10.5137 35.6453 -20.9598 22.7537 146.416 -3.6436 11.2608 -55.13 19.2639 -26.7785 8.66614 -2.58171 18.3045 2.9099 -17.7826 6.01478 2.07999 -14.7316 15.0037 16.3229 
